<mxfile host="app.diagrams.net" modified="2023-12-21T08:45:22.512Z" agent="Mozilla/5.0 (Windows NT 10.0; Win64; x64) AppleWebKit/537.36 (KHTML, like Gecko) Chrome/120.0.0.0 Safari/537.36" etag="1WDel71P5PCcXODvK4N_" version="22.1.11" type="github">
  <diagram name="Page-1" id="2YBvvXClWsGukQMizWep">
    <mxGraphModel dx="724" dy="360" grid="0" gridSize="10" guides="1" tooltips="1" connect="1" arrows="1" fold="1" page="1" pageScale="1" pageWidth="850" pageHeight="1100" background="none" math="0" shadow="0">
      <root>
        <mxCell id="0" />
        <mxCell id="1" parent="0" />
        <mxCell id="Tl_bqedoL6HtUF3RtP5--1" value="Device Webcam" style="rounded=0;whiteSpace=wrap;html=1;" vertex="1" parent="1">
          <mxGeometry x="214" y="47" width="120" height="60" as="geometry" />
        </mxCell>
        <mxCell id="Tl_bqedoL6HtUF3RtP5--2" value="Real Time Video Capture" style="rounded=0;whiteSpace=wrap;html=1;" vertex="1" parent="1">
          <mxGeometry x="354" y="47" width="120" height="60" as="geometry" />
        </mxCell>
        <mxCell id="Tl_bqedoL6HtUF3RtP5--3" value="Hand Gesture Recognition using YOLOv5s" style="rounded=0;whiteSpace=wrap;html=1;" vertex="1" parent="1">
          <mxGeometry x="78" y="126" width="120" height="60" as="geometry" />
        </mxCell>
        <mxCell id="Tl_bqedoL6HtUF3RtP5--4" value="Gesture Recognition" style="rounded=0;whiteSpace=wrap;html=1;" vertex="1" parent="1">
          <mxGeometry x="214" y="126" width="120" height="60" as="geometry" />
        </mxCell>
        <mxCell id="Tl_bqedoL6HtUF3RtP5--5" value="No Action" style="rounded=0;whiteSpace=wrap;html=1;" vertex="1" parent="1">
          <mxGeometry x="150" y="220" width="120" height="60" as="geometry" />
        </mxCell>
        <mxCell id="Tl_bqedoL6HtUF3RtP5--6" value="Co-ordinates calculation and conversion" style="rounded=0;whiteSpace=wrap;html=1;" vertex="1" parent="1">
          <mxGeometry x="365" y="250" width="120" height="60" as="geometry" />
        </mxCell>
        <mxCell id="Tl_bqedoL6HtUF3RtP5--7" value="Real-time Mouse Operations" style="rounded=0;whiteSpace=wrap;html=1;" vertex="1" parent="1">
          <mxGeometry x="190" y="300" width="120" height="60" as="geometry" />
        </mxCell>
      </root>
    </mxGraphModel>
  </diagram>
</mxfile>
